<?xml version="1.0" encoding="utf-8"?>
<!-- Generator: Adobe Illustrator 23.0.1, SVG Export Plug-In . SVG Version: 6.00 Build 0)  -->
<svg version="1.1" id="Calque_1" xmlns="http://www.w3.org/2000/svg" xmlns:xlink="http://www.w3.org/1999/xlink" x="0px" y="0px"
	 viewBox="0 0 398 319" style="enable-background:new 0 0 398 319;" xml:space="preserve">
<style type="text/css">
	.st0{fill:#F6E395;}
</style>
<g>
	<path class="st0" d="M154.09,172.6c0-9.48,0.21-18.29,0.36-23.06h-0.07c-1.29,7.79-6,30.68-9.07,45.36h-2.97
		c-2.36-12.25-7.28-37-8.5-45.36h-0.14c0.14,5.55,0.43,16.49,0.43,24.7v20.66h-2.75v-48.1h4.04c3.42,16.26,7.83,37.9,8.48,43.4h0.07
		c0.72-5.15,5.5-28.14,8.85-43.4h4.11v48.1h-2.83V172.6z"/>
	<path class="st0" d="M178.58,189.87c0,2.66,0.07,4.29,0.14,5.03h-2.68c-0.21-1.07-0.29-2.51-0.29-3.23
		c-1.08,3.15-3.59,3.81-5.84,3.81c-4.98,0-6.93-4.2-6.93-9.89v-0.65c0-7.38,4.08-10.82,10.42-10.82c0.78,0,1.35,0,2.34,0v-6.87
		c0-3.73-0.78-6.3-4.28-6.3c-3.5,0-4.57,2.64-4.57,6.07v1.35h-2.76v-1.35c0-4.84,1.95-8.74,7.41-8.74c5.58,0,7.04,4.03,7.04,8.81
		V189.87z M175.82,176.64c-0.57,0-1.64,0-2.35,0c-4.93,0-7.66,2.21-7.66,8.16v0.65c0,3.93,1.08,7.35,4.51,7.35
		c4.28,0,5.5-3.7,5.5-9.66V176.64z"/>
	<path class="st0" d="M194.91,175.04v2.68h-11.2v-2.68H194.91z"/>
	<path class="st0" d="M202.58,146.69H195V144h17.71l-7.45,2.69v48.21h-2.68V146.69z"/>
	<path class="st0" d="M227.4,189.87c0,2.66,0.07,4.29,0.14,5.03h-2.68c-0.21-1.07-0.29-2.51-0.29-3.23
		c-1.08,3.15-3.59,3.81-5.84,3.81c-4.98,0-6.93-4.2-6.93-9.89v-0.65c0-7.38,4.08-10.82,10.42-10.82c0.78,0,1.35,0,2.34,0v-6.87
		c0-3.73-0.78-6.3-4.28-6.3c-3.5,0-4.57,2.64-4.57,6.07v1.35h-2.76v-1.35c0-4.84,1.95-8.74,7.41-8.74c5.58,0,7.04,4.03,7.04,8.81
		V189.87z M224.63,176.64c-0.57,0-1.64,0-2.35,0c-4.93,0-7.66,2.21-7.66,8.16v0.65c0,3.93,1.08,7.35,4.51,7.35
		c4.28,0,5.5-3.7,5.5-9.66V176.64z"/>
	<path class="st0" d="M234.76,145h2.77v17.69c0.8-2.22,2.61-4.14,6.48-4.14c4.98,0,7.07,4.01,7.07,9.89v15.32
		c0,6.41-1.65,11.57-7.8,11.57c-3.25,0-5.19-1.65-5.98-4.14c0,1.57,0,2.5-0.15,3.71h-2.47c0.07-1.59,0.07-4.81,0.07-9.72V145z
		 M248.25,184.14v-15.32c0-4.9-1.42-7.61-4.86-7.61c-5.35,0-5.93,5.51-5.93,11.33v10.06c0,6.94,1.64,10.06,5.71,10.06
		C246.53,192.67,248.25,189.97,248.25,184.14z"/>
	<path class="st0" d="M259.49,154.6c-0.01,0-0.02,0-0.03,0c-0.21,0.02-0.42,0.04-0.65,0.04c-0.26,0-0.5-0.02-0.74-0.05
		c-0.04-0.01-0.08-0.01-0.12-0.02c-0.23-0.03-0.45-0.08-0.65-0.14v40.47h2.77v-40.4c0,0,0,0,0,0
		C259.88,154.54,259.69,154.57,259.49,154.6z"/>
	<path class="st0" d="M269.06,177v10.56c0,2.89,2.28,5.37,5.17,5.38c4.05,0.02,4.98-3,4.98-7.37v-0.43h2.76v0.36
		c0,4.59-1.15,9.97-7.83,9.97c-5.77,0-7.84-4.14-7.84-11.49v-15.13c0-6.03,2.29-10.56,8.05-10.56c6.16,0,7.7,5.12,7.7,10.63
		c0,1.81,0,6.05,0,8.07H269.06z M279.29,174.47v-5.37c0-3.39-0.3-8.29-5.01-8.29c-4.56,0-5.22,4.05-5.22,8.36v5.3H279.29z"/>
	<polygon class="st0" points="201.65,146.85 287,146.85 287,143.19 189,143.19 189,146.85 	"/>
</g>
</svg>
